<svg xmlns="http://www.w3.org/2000/svg" viewBox="0 0 34.11 160.74"><defs><style>.cls-1{fill:#b3c53f;}.cls-2{fill:#8a33b9;}</style></defs><g id="Layer_2" data-name="Layer 2"><g id="Layer_1-2" data-name="Layer 1"><path class="cls-1" d="M25.35,8.77s8.76,0,8.76,8.76V0Z"/><path class="cls-1" d="M33.11,36.35v7.07l-4.46,4.46a116.74,116.74,0,0,0,4.46-11.53m1-10c0,8.77-8.76,26.3-8.76,26.3l8.76-8.76V26.3Z"/><path class="cls-1" d="M13.27,64.32A117.72,117.72,0,0,0,8.81,75.85V68.78l4.46-4.46m3.31-4.72L7.81,68.37V85.9c0-8.76,8.77-26.3,8.77-26.3ZM7.81,85.9v0Z"/><path class="cls-2" d="M25.35,8.77s-8.77,8.76-8.77,17.53V131.51c8.77,0,8.77-8.77,8.77-8.77Z"/><path class="cls-1" d="M1,39.05c6.65.62,6.77,7.42,6.77,7.72V158.11c-2.48-3-6.77-9-6.77-14.9V39.05M0,38V143.21c0,8.76,8.77,17.53,8.77,17.53v-114S8.77,38,0,38Z"/></g></g></svg>